<mxfile host="app.diagrams.net" modified="2024-05-26T21:03:22.019Z" agent="Mozilla/5.0 (X11; Ubuntu; Linux x86_64; rv:122.0) Gecko/20100101 Firefox/122.0" etag="R3FzQYklqwaP46XlUcgz" version="24.4.8" type="device">
  <diagram name="Page-1" id="c4acf3e9-155e-7222-9cf6-157b1a14988f">
    <mxGraphModel dx="1195" dy="623" grid="1" gridSize="10" guides="1" tooltips="1" connect="1" arrows="1" fold="1" page="1" pageScale="1" pageWidth="850" pageHeight="1100" background="none" math="0" shadow="0">
      <root>
        <mxCell id="0" />
        <mxCell id="1" parent="0" />
        <mxCell id="17acba5748e5396b-20" value="Regal" style="swimlane;html=1;fontStyle=0;childLayout=stackLayout;horizontal=1;startSize=26;fillColor=none;horizontalStack=0;resizeParent=1;resizeLast=0;collapsible=1;marginBottom=0;swimlaneFillColor=#ffffff;rounded=0;shadow=0;comic=0;labelBackgroundColor=none;strokeWidth=1;fontFamily=Verdana;fontSize=10;align=center;" parent="1" vertex="1">
          <mxGeometry x="70" y="353" width="160" height="110" as="geometry" />
        </mxCell>
        <mxCell id="17acba5748e5396b-21" value="dimensionen" style="text;html=1;strokeColor=none;fillColor=none;align=left;verticalAlign=top;spacingLeft=4;spacingRight=4;whiteSpace=wrap;overflow=hidden;rotatable=0;points=[[0,0.5],[1,0.5]];portConstraint=eastwest;" parent="17acba5748e5396b-20" vertex="1">
          <mxGeometry y="26" width="160" height="26" as="geometry" />
        </mxCell>
        <mxCell id="jFM6U1cqWZua-iRVbguj-55" value="position" style="text;html=1;strokeColor=none;fillColor=none;align=left;verticalAlign=top;spacingLeft=4;spacingRight=4;whiteSpace=wrap;overflow=hidden;rotatable=0;points=[[0,0.5],[1,0.5]];portConstraint=eastwest;" vertex="1" parent="17acba5748e5396b-20">
          <mxGeometry y="52" width="160" height="26" as="geometry" />
        </mxCell>
        <mxCell id="17acba5748e5396b-30" value="Paket" style="swimlane;html=1;fontStyle=0;childLayout=stackLayout;horizontal=1;startSize=26;fillColor=none;horizontalStack=0;resizeParent=1;resizeLast=0;collapsible=1;marginBottom=0;swimlaneFillColor=#ffffff;rounded=0;shadow=0;comic=0;labelBackgroundColor=none;strokeWidth=1;fontFamily=Verdana;fontSize=10;align=center;" parent="1" vertex="1">
          <mxGeometry x="590" y="244" width="160" height="110" as="geometry" />
        </mxCell>
        <mxCell id="17acba5748e5396b-31" value="gewicht" style="text;html=1;strokeColor=none;fillColor=none;align=left;verticalAlign=top;spacingLeft=4;spacingRight=4;whiteSpace=wrap;overflow=hidden;rotatable=0;points=[[0,0.5],[1,0.5]];portConstraint=eastwest;" parent="17acba5748e5396b-30" vertex="1">
          <mxGeometry y="26" width="160" height="26" as="geometry" />
        </mxCell>
        <mxCell id="17acba5748e5396b-32" value="dimensionen" style="text;html=1;strokeColor=none;fillColor=none;align=left;verticalAlign=top;spacingLeft=4;spacingRight=4;whiteSpace=wrap;overflow=hidden;rotatable=0;points=[[0,0.5],[1,0.5]];portConstraint=eastwest;" parent="17acba5748e5396b-30" vertex="1">
          <mxGeometry y="52" width="160" height="26" as="geometry" />
        </mxCell>
        <mxCell id="17acba5748e5396b-33" value="menge" style="text;html=1;strokeColor=none;fillColor=none;align=left;verticalAlign=top;spacingLeft=4;spacingRight=4;whiteSpace=wrap;overflow=hidden;rotatable=0;points=[[0,0.5],[1,0.5]];portConstraint=eastwest;" parent="17acba5748e5396b-30" vertex="1">
          <mxGeometry y="78" width="160" height="26" as="geometry" />
        </mxCell>
        <mxCell id="KGjBcAXWpHdNkzQw82LQ-5" value="&lt;div&gt;«enum» &lt;br&gt;&lt;/div&gt;&lt;div&gt;Zutaten&lt;/div&gt;" style="swimlane;html=1;fontStyle=0;childLayout=stackLayout;horizontal=1;startSize=26;fillColor=none;horizontalStack=0;resizeParent=1;resizeLast=0;collapsible=1;marginBottom=0;swimlaneFillColor=#ffffff;rounded=0;shadow=0;comic=0;labelBackgroundColor=none;strokeWidth=1;fontFamily=Verdana;fontSize=10;align=center;" parent="1" vertex="1">
          <mxGeometry x="590" y="90" width="160" height="87" as="geometry" />
        </mxCell>
        <mxCell id="KGjBcAXWpHdNkzQw82LQ-6" value="farbe" style="text;html=1;strokeColor=none;fillColor=none;align=left;verticalAlign=top;spacingLeft=4;spacingRight=4;whiteSpace=wrap;overflow=hidden;rotatable=0;points=[[0,0.5],[1,0.5]];portConstraint=eastwest;" parent="KGjBcAXWpHdNkzQw82LQ-5" vertex="1">
          <mxGeometry y="26" width="160" height="26" as="geometry" />
        </mxCell>
        <mxCell id="jFM6U1cqWZua-iRVbguj-6" value="unverträglichkeiten" style="text;html=1;strokeColor=none;fillColor=none;align=left;verticalAlign=top;spacingLeft=4;spacingRight=4;whiteSpace=wrap;overflow=hidden;rotatable=0;points=[[0,0.5],[1,0.5]];portConstraint=eastwest;" vertex="1" parent="KGjBcAXWpHdNkzQw82LQ-5">
          <mxGeometry y="52" width="160" height="26" as="geometry" />
        </mxCell>
        <mxCell id="KGjBcAXWpHdNkzQw82LQ-11" value="Template" style="swimlane;html=1;fontStyle=0;childLayout=stackLayout;horizontal=1;startSize=26;fillColor=none;horizontalStack=0;resizeParent=1;resizeLast=0;collapsible=1;marginBottom=0;swimlaneFillColor=#ffffff;rounded=0;shadow=0;comic=0;labelBackgroundColor=none;strokeWidth=1;fontFamily=Verdana;fontSize=10;align=center;" parent="1" vertex="1">
          <mxGeometry x="320" y="244" width="160" height="110" as="geometry" />
        </mxCell>
        <mxCell id="KGjBcAXWpHdNkzQw82LQ-12" value="gewicht" style="text;html=1;strokeColor=none;fillColor=none;align=left;verticalAlign=top;spacingLeft=4;spacingRight=4;whiteSpace=wrap;overflow=hidden;rotatable=0;points=[[0,0.5],[1,0.5]];portConstraint=eastwest;" parent="KGjBcAXWpHdNkzQw82LQ-11" vertex="1">
          <mxGeometry y="26" width="160" height="26" as="geometry" />
        </mxCell>
        <mxCell id="KGjBcAXWpHdNkzQw82LQ-13" value="dimensionen" style="text;html=1;strokeColor=none;fillColor=none;align=left;verticalAlign=top;spacingLeft=4;spacingRight=4;whiteSpace=wrap;overflow=hidden;rotatable=0;points=[[0,0.5],[1,0.5]];portConstraint=eastwest;" parent="KGjBcAXWpHdNkzQw82LQ-11" vertex="1">
          <mxGeometry y="52" width="160" height="26" as="geometry" />
        </mxCell>
        <mxCell id="KGjBcAXWpHdNkzQw82LQ-14" value="menge" style="text;html=1;strokeColor=none;fillColor=none;align=left;verticalAlign=top;spacingLeft=4;spacingRight=4;whiteSpace=wrap;overflow=hidden;rotatable=0;points=[[0,0.5],[1,0.5]];portConstraint=eastwest;" parent="KGjBcAXWpHdNkzQw82LQ-11" vertex="1">
          <mxGeometry y="78" width="160" height="26" as="geometry" />
        </mxCell>
        <mxCell id="KGjBcAXWpHdNkzQw82LQ-17" value="Stütze" style="swimlane;html=1;fontStyle=0;childLayout=stackLayout;horizontal=1;startSize=26;fillColor=none;horizontalStack=0;resizeParent=1;resizeLast=0;collapsible=1;marginBottom=0;swimlaneFillColor=#ffffff;rounded=0;shadow=0;comic=0;labelBackgroundColor=none;strokeWidth=1;fontFamily=Verdana;fontSize=10;align=center;" parent="1" vertex="1">
          <mxGeometry x="590" y="681" width="160" height="78" as="geometry" />
        </mxCell>
        <mxCell id="KGjBcAXWpHdNkzQw82LQ-18" value="dimensionen" style="text;html=1;strokeColor=none;fillColor=none;align=left;verticalAlign=top;spacingLeft=4;spacingRight=4;whiteSpace=wrap;overflow=hidden;rotatable=0;points=[[0,0.5],[1,0.5]];portConstraint=eastwest;" parent="KGjBcAXWpHdNkzQw82LQ-17" vertex="1">
          <mxGeometry y="26" width="160" height="26" as="geometry" />
        </mxCell>
        <mxCell id="jFM6U1cqWZua-iRVbguj-59" value="position" style="text;html=1;strokeColor=none;fillColor=none;align=left;verticalAlign=top;spacingLeft=4;spacingRight=4;whiteSpace=wrap;overflow=hidden;rotatable=0;points=[[0,0.5],[1,0.5]];portConstraint=eastwest;" vertex="1" parent="KGjBcAXWpHdNkzQw82LQ-17">
          <mxGeometry y="52" width="160" height="26" as="geometry" />
        </mxCell>
        <mxCell id="KGjBcAXWpHdNkzQw82LQ-19" value="Brett" style="swimlane;html=1;fontStyle=0;childLayout=stackLayout;horizontal=1;startSize=26;fillColor=none;horizontalStack=0;resizeParent=1;resizeLast=0;collapsible=1;marginBottom=0;swimlaneFillColor=#ffffff;rounded=0;shadow=0;comic=0;labelBackgroundColor=none;strokeWidth=1;fontFamily=Verdana;fontSize=10;align=center;" parent="1" vertex="1">
          <mxGeometry x="590" y="534" width="160" height="110" as="geometry" />
        </mxCell>
        <mxCell id="KGjBcAXWpHdNkzQw82LQ-20" value="dimensionen" style="text;html=1;strokeColor=none;fillColor=none;align=left;verticalAlign=top;spacingLeft=4;spacingRight=4;whiteSpace=wrap;overflow=hidden;rotatable=0;points=[[0,0.5],[1,0.5]];portConstraint=eastwest;" parent="KGjBcAXWpHdNkzQw82LQ-19" vertex="1">
          <mxGeometry y="26" width="160" height="26" as="geometry" />
        </mxCell>
        <mxCell id="KGjBcAXWpHdNkzQw82LQ-29" value="tragkraft" style="text;html=1;strokeColor=none;fillColor=none;align=left;verticalAlign=top;spacingLeft=4;spacingRight=4;whiteSpace=wrap;overflow=hidden;rotatable=0;points=[[0,0.5],[1,0.5]];portConstraint=eastwest;" parent="KGjBcAXWpHdNkzQw82LQ-19" vertex="1">
          <mxGeometry y="52" width="160" height="26" as="geometry" />
        </mxCell>
        <mxCell id="jFM6U1cqWZua-iRVbguj-58" value="position" style="text;html=1;strokeColor=none;fillColor=none;align=left;verticalAlign=top;spacingLeft=4;spacingRight=4;whiteSpace=wrap;overflow=hidden;rotatable=0;points=[[0,0.5],[1,0.5]];portConstraint=eastwest;" vertex="1" parent="KGjBcAXWpHdNkzQw82LQ-19">
          <mxGeometry y="78" width="160" height="26" as="geometry" />
        </mxCell>
        <mxCell id="KGjBcAXWpHdNkzQw82LQ-26" value="1" style="text;html=1;align=center;verticalAlign=middle;whiteSpace=wrap;rounded=0;" parent="1" vertex="1">
          <mxGeometry x="100" y="233" width="60" height="30" as="geometry" />
        </mxCell>
        <mxCell id="KGjBcAXWpHdNkzQw82LQ-30" value="Lager" style="swimlane;html=1;fontStyle=0;childLayout=stackLayout;horizontal=1;startSize=26;fillColor=none;horizontalStack=0;resizeParent=1;resizeLast=0;collapsible=1;marginBottom=0;swimlaneFillColor=#ffffff;rounded=0;shadow=0;comic=0;labelBackgroundColor=none;strokeWidth=1;fontFamily=Verdana;fontSize=10;align=center;" parent="1" vertex="1">
          <mxGeometry x="70" y="150" width="160" height="83" as="geometry" />
        </mxCell>
        <mxCell id="KGjBcAXWpHdNkzQw82LQ-32" value="dimensionen" style="text;html=1;strokeColor=none;fillColor=none;align=left;verticalAlign=top;spacingLeft=4;spacingRight=4;whiteSpace=wrap;overflow=hidden;rotatable=0;points=[[0,0.5],[1,0.5]];portConstraint=eastwest;" parent="KGjBcAXWpHdNkzQw82LQ-30" vertex="1">
          <mxGeometry y="26" width="160" height="26" as="geometry" />
        </mxCell>
        <mxCell id="KGjBcAXWpHdNkzQw82LQ-40" value="inventar" style="text;html=1;strokeColor=none;fillColor=none;align=left;verticalAlign=top;spacingLeft=4;spacingRight=4;whiteSpace=wrap;overflow=hidden;rotatable=0;points=[[0,0.5],[1,0.5]];portConstraint=eastwest;" parent="KGjBcAXWpHdNkzQw82LQ-30" vertex="1">
          <mxGeometry y="52" width="160" height="26" as="geometry" />
        </mxCell>
        <mxCell id="KGjBcAXWpHdNkzQw82LQ-37" value="besteht aus" style="text;html=1;align=center;verticalAlign=middle;whiteSpace=wrap;rounded=0;" parent="1" vertex="1">
          <mxGeometry x="150" y="280" width="80" height="30" as="geometry" />
        </mxCell>
        <mxCell id="KGjBcAXWpHdNkzQw82LQ-38" value="1" style="text;html=1;align=center;verticalAlign=middle;whiteSpace=wrap;rounded=0;" parent="1" vertex="1">
          <mxGeometry x="120" y="233" width="60" height="30" as="geometry" />
        </mxCell>
        <mxCell id="KGjBcAXWpHdNkzQw82LQ-39" value="*" style="text;html=1;align=center;verticalAlign=middle;whiteSpace=wrap;rounded=0;" parent="1" vertex="1">
          <mxGeometry x="110" y="330" width="50" height="30" as="geometry" />
        </mxCell>
        <mxCell id="jFM6U1cqWZua-iRVbguj-2" value="" style="endArrow=classic;startArrow=classic;html=1;rounded=0;entryX=0.5;entryY=1;entryDx=0;entryDy=0;exitX=0.5;exitY=0;exitDx=0;exitDy=0;" edge="1" parent="1" source="17acba5748e5396b-20" target="KGjBcAXWpHdNkzQw82LQ-30">
          <mxGeometry width="50" height="50" relative="1" as="geometry">
            <mxPoint x="320" y="390" as="sourcePoint" />
            <mxPoint x="370" y="340" as="targetPoint" />
          </mxGeometry>
        </mxCell>
        <mxCell id="jFM6U1cqWZua-iRVbguj-3" value="Regalteil" style="swimlane;html=1;fontStyle=0;childLayout=stackLayout;horizontal=1;startSize=26;fillColor=none;horizontalStack=0;resizeParent=1;resizeLast=0;collapsible=1;marginBottom=0;swimlaneFillColor=#ffffff;rounded=0;shadow=0;comic=0;labelBackgroundColor=none;strokeWidth=1;fontFamily=Verdana;fontSize=10;align=center;" vertex="1" parent="1">
          <mxGeometry x="70" y="534" width="160" height="110" as="geometry" />
        </mxCell>
        <mxCell id="jFM6U1cqWZua-iRVbguj-4" value="dimensionen" style="text;html=1;strokeColor=none;fillColor=none;align=left;verticalAlign=top;spacingLeft=4;spacingRight=4;whiteSpace=wrap;overflow=hidden;rotatable=0;points=[[0,0.5],[1,0.5]];portConstraint=eastwest;" vertex="1" parent="jFM6U1cqWZua-iRVbguj-3">
          <mxGeometry y="26" width="160" height="26" as="geometry" />
        </mxCell>
        <mxCell id="jFM6U1cqWZua-iRVbguj-56" value="position" style="text;html=1;strokeColor=none;fillColor=none;align=left;verticalAlign=top;spacingLeft=4;spacingRight=4;whiteSpace=wrap;overflow=hidden;rotatable=0;points=[[0,0.5],[1,0.5]];portConstraint=eastwest;" vertex="1" parent="jFM6U1cqWZua-iRVbguj-3">
          <mxGeometry y="52" width="160" height="26" as="geometry" />
        </mxCell>
        <mxCell id="jFM6U1cqWZua-iRVbguj-7" value="Regalabschnitt" style="swimlane;html=1;fontStyle=0;childLayout=stackLayout;horizontal=1;startSize=26;fillColor=none;horizontalStack=0;resizeParent=1;resizeLast=0;collapsible=1;marginBottom=0;swimlaneFillColor=#ffffff;rounded=0;shadow=0;comic=0;labelBackgroundColor=none;strokeWidth=1;fontFamily=Verdana;fontSize=10;align=center;" vertex="1" parent="1">
          <mxGeometry x="260" y="711" width="160" height="110" as="geometry" />
        </mxCell>
        <mxCell id="jFM6U1cqWZua-iRVbguj-8" value="dimensionen" style="text;html=1;strokeColor=none;fillColor=none;align=left;verticalAlign=top;spacingLeft=4;spacingRight=4;whiteSpace=wrap;overflow=hidden;rotatable=0;points=[[0,0.5],[1,0.5]];portConstraint=eastwest;" vertex="1" parent="jFM6U1cqWZua-iRVbguj-7">
          <mxGeometry y="26" width="160" height="26" as="geometry" />
        </mxCell>
        <mxCell id="jFM6U1cqWZua-iRVbguj-57" value="position" style="text;html=1;strokeColor=none;fillColor=none;align=left;verticalAlign=top;spacingLeft=4;spacingRight=4;whiteSpace=wrap;overflow=hidden;rotatable=0;points=[[0,0.5],[1,0.5]];portConstraint=eastwest;" vertex="1" parent="jFM6U1cqWZua-iRVbguj-7">
          <mxGeometry y="52" width="160" height="26" as="geometry" />
        </mxCell>
        <mxCell id="jFM6U1cqWZua-iRVbguj-9" value="" style="endArrow=classic;startArrow=classic;html=1;rounded=0;entryX=0.5;entryY=1;entryDx=0;entryDy=0;exitX=0.5;exitY=0;exitDx=0;exitDy=0;" edge="1" parent="1" source="jFM6U1cqWZua-iRVbguj-3" target="17acba5748e5396b-20">
          <mxGeometry width="50" height="50" relative="1" as="geometry">
            <mxPoint x="150" y="540" as="sourcePoint" />
            <mxPoint x="149.17" y="480" as="targetPoint" />
          </mxGeometry>
        </mxCell>
        <mxCell id="jFM6U1cqWZua-iRVbguj-10" value="" style="endArrow=classic;startArrow=classic;html=1;rounded=0;exitX=1;exitY=0.5;exitDx=0;exitDy=0;entryX=0.75;entryY=1;entryDx=0;entryDy=0;" edge="1" parent="1" source="jFM6U1cqWZua-iRVbguj-3" target="jFM6U1cqWZua-iRVbguj-21">
          <mxGeometry width="50" height="50" relative="1" as="geometry">
            <mxPoint x="230" y="600" as="sourcePoint" />
            <mxPoint x="505" y="570" as="targetPoint" />
          </mxGeometry>
        </mxCell>
        <mxCell id="jFM6U1cqWZua-iRVbguj-11" value="" style="endArrow=classic;startArrow=classic;html=1;rounded=0;exitX=0.5;exitY=0;exitDx=0;exitDy=0;entryX=0.5;entryY=1;entryDx=0;entryDy=0;" edge="1" parent="1" source="17acba5748e5396b-30" target="KGjBcAXWpHdNkzQw82LQ-5">
          <mxGeometry width="50" height="50" relative="1" as="geometry">
            <mxPoint x="430" y="377" as="sourcePoint" />
            <mxPoint x="480" y="327" as="targetPoint" />
          </mxGeometry>
        </mxCell>
        <mxCell id="jFM6U1cqWZua-iRVbguj-12" value="beinhaltet" style="text;html=1;align=center;verticalAlign=middle;whiteSpace=wrap;rounded=0;" vertex="1" parent="1">
          <mxGeometry x="590" y="197" width="80" height="30" as="geometry" />
        </mxCell>
        <mxCell id="jFM6U1cqWZua-iRVbguj-13" value="1" style="text;html=1;align=center;verticalAlign=middle;whiteSpace=wrap;rounded=0;" vertex="1" parent="1">
          <mxGeometry x="660" y="220" width="60" height="30" as="geometry" />
        </mxCell>
        <mxCell id="jFM6U1cqWZua-iRVbguj-14" value="1" style="text;html=1;align=center;verticalAlign=middle;whiteSpace=wrap;rounded=0;" vertex="1" parent="1">
          <mxGeometry x="660" y="177" width="60" height="30" as="geometry" />
        </mxCell>
        <mxCell id="jFM6U1cqWZua-iRVbguj-15" value="besteht aus" style="text;html=1;align=center;verticalAlign=middle;whiteSpace=wrap;rounded=0;" vertex="1" parent="1">
          <mxGeometry x="150" y="487" width="80" height="30" as="geometry" />
        </mxCell>
        <mxCell id="jFM6U1cqWZua-iRVbguj-16" value="1" style="text;html=1;align=center;verticalAlign=middle;whiteSpace=wrap;rounded=0;" vertex="1" parent="1">
          <mxGeometry x="105" y="463" width="60" height="30" as="geometry" />
        </mxCell>
        <mxCell id="jFM6U1cqWZua-iRVbguj-17" value="*" style="text;html=1;align=center;verticalAlign=middle;whiteSpace=wrap;rounded=0;" vertex="1" parent="1">
          <mxGeometry x="110" y="510" width="50" height="30" as="geometry" />
        </mxCell>
        <mxCell id="jFM6U1cqWZua-iRVbguj-20" value="besteht aus" style="text;html=1;align=center;verticalAlign=middle;whiteSpace=wrap;rounded=0;" vertex="1" parent="1">
          <mxGeometry x="380" y="560" width="80" height="30" as="geometry" />
        </mxCell>
        <mxCell id="jFM6U1cqWZua-iRVbguj-21" value="*" style="text;html=1;align=center;verticalAlign=middle;whiteSpace=wrap;rounded=0;" vertex="1" parent="1">
          <mxGeometry x="555" y="560" width="50" height="30" as="geometry" />
        </mxCell>
        <mxCell id="jFM6U1cqWZua-iRVbguj-22" value="1" style="text;html=1;align=center;verticalAlign=middle;whiteSpace=wrap;rounded=0;" vertex="1" parent="1">
          <mxGeometry x="210" y="560" width="60" height="30" as="geometry" />
        </mxCell>
        <mxCell id="jFM6U1cqWZua-iRVbguj-27" value="2" style="text;html=1;align=center;verticalAlign=middle;whiteSpace=wrap;rounded=0;" vertex="1" parent="1">
          <mxGeometry x="550" y="690" width="60" height="30" as="geometry" />
        </mxCell>
        <mxCell id="jFM6U1cqWZua-iRVbguj-31" value="" style="endArrow=none;html=1;rounded=0;exitX=1;exitY=0.5;exitDx=0;exitDy=0;entryX=0;entryY=0.5;entryDx=0;entryDy=0;" edge="1" parent="1" source="KGjBcAXWpHdNkzQw82LQ-13" target="17acba5748e5396b-32">
          <mxGeometry width="50" height="50" relative="1" as="geometry">
            <mxPoint x="510" y="377" as="sourcePoint" />
            <mxPoint x="560" y="327" as="targetPoint" />
          </mxGeometry>
        </mxCell>
        <mxCell id="jFM6U1cqWZua-iRVbguj-32" value="ist Instanz" style="text;html=1;align=center;verticalAlign=middle;whiteSpace=wrap;rounded=0;" vertex="1" parent="1">
          <mxGeometry x="490" y="284" width="80" height="30" as="geometry" />
        </mxCell>
        <mxCell id="jFM6U1cqWZua-iRVbguj-33" value="1" style="text;html=1;align=center;verticalAlign=middle;whiteSpace=wrap;rounded=0;" vertex="1" parent="1">
          <mxGeometry x="460" y="307" width="60" height="30" as="geometry" />
        </mxCell>
        <mxCell id="jFM6U1cqWZua-iRVbguj-34" value="1" style="text;html=1;align=center;verticalAlign=middle;whiteSpace=wrap;rounded=0;" vertex="1" parent="1">
          <mxGeometry x="550" y="307" width="60" height="30" as="geometry" />
        </mxCell>
        <mxCell id="jFM6U1cqWZua-iRVbguj-35" value="Stapel" style="swimlane;html=1;fontStyle=0;childLayout=stackLayout;horizontal=1;startSize=26;fillColor=none;horizontalStack=0;resizeParent=1;resizeLast=0;collapsible=1;marginBottom=0;swimlaneFillColor=#ffffff;rounded=0;shadow=0;comic=0;labelBackgroundColor=none;strokeWidth=1;fontFamily=Verdana;fontSize=10;align=center;" vertex="1" parent="1">
          <mxGeometry x="590" y="400" width="160" height="87" as="geometry" />
        </mxCell>
        <mxCell id="jFM6U1cqWZua-iRVbguj-36" value="gewicht" style="text;html=1;strokeColor=none;fillColor=none;align=left;verticalAlign=top;spacingLeft=4;spacingRight=4;whiteSpace=wrap;overflow=hidden;rotatable=0;points=[[0,0.5],[1,0.5]];portConstraint=eastwest;" vertex="1" parent="jFM6U1cqWZua-iRVbguj-35">
          <mxGeometry y="26" width="160" height="26" as="geometry" />
        </mxCell>
        <mxCell id="jFM6U1cqWZua-iRVbguj-37" value="dimensionen" style="text;html=1;strokeColor=none;fillColor=none;align=left;verticalAlign=top;spacingLeft=4;spacingRight=4;whiteSpace=wrap;overflow=hidden;rotatable=0;points=[[0,0.5],[1,0.5]];portConstraint=eastwest;" vertex="1" parent="jFM6U1cqWZua-iRVbguj-35">
          <mxGeometry y="52" width="160" height="26" as="geometry" />
        </mxCell>
        <mxCell id="jFM6U1cqWZua-iRVbguj-39" value="" style="endArrow=classic;startArrow=classic;html=1;rounded=0;entryX=0.5;entryY=1;entryDx=0;entryDy=0;exitX=0.5;exitY=0;exitDx=0;exitDy=0;" edge="1" parent="1" source="KGjBcAXWpHdNkzQw82LQ-19" target="jFM6U1cqWZua-iRVbguj-35">
          <mxGeometry width="50" height="50" relative="1" as="geometry">
            <mxPoint x="530" y="460" as="sourcePoint" />
            <mxPoint x="580" y="410" as="targetPoint" />
          </mxGeometry>
        </mxCell>
        <mxCell id="jFM6U1cqWZua-iRVbguj-40" value="steht auf" style="text;html=1;align=center;verticalAlign=middle;whiteSpace=wrap;rounded=0;" vertex="1" parent="1">
          <mxGeometry x="670" y="497" width="80" height="30" as="geometry" />
        </mxCell>
        <mxCell id="jFM6U1cqWZua-iRVbguj-41" value="1" style="text;html=1;align=center;verticalAlign=middle;whiteSpace=wrap;rounded=0;" vertex="1" parent="1">
          <mxGeometry x="620" y="510" width="60" height="30" as="geometry" />
        </mxCell>
        <mxCell id="jFM6U1cqWZua-iRVbguj-42" value="*" style="text;html=1;align=center;verticalAlign=middle;whiteSpace=wrap;rounded=0;" vertex="1" parent="1">
          <mxGeometry x="625" y="487" width="50" height="30" as="geometry" />
        </mxCell>
        <mxCell id="jFM6U1cqWZua-iRVbguj-43" value="" style="endArrow=classic;startArrow=classic;html=1;rounded=0;exitX=0.5;exitY=0;exitDx=0;exitDy=0;entryX=0.5;entryY=1;entryDx=0;entryDy=0;" edge="1" parent="1" source="jFM6U1cqWZua-iRVbguj-35" target="17acba5748e5396b-30">
          <mxGeometry width="50" height="50" relative="1" as="geometry">
            <mxPoint x="570" y="490" as="sourcePoint" />
            <mxPoint x="620" y="440" as="targetPoint" />
          </mxGeometry>
        </mxCell>
        <mxCell id="jFM6U1cqWZua-iRVbguj-44" value="1" style="text;html=1;align=center;verticalAlign=middle;whiteSpace=wrap;rounded=0;" vertex="1" parent="1">
          <mxGeometry x="625" y="378" width="60" height="30" as="geometry" />
        </mxCell>
        <mxCell id="jFM6U1cqWZua-iRVbguj-45" value="besteht aus" style="text;html=1;align=center;verticalAlign=middle;whiteSpace=wrap;rounded=0;" vertex="1" parent="1">
          <mxGeometry x="670" y="360" width="80" height="30" as="geometry" />
        </mxCell>
        <mxCell id="jFM6U1cqWZua-iRVbguj-46" value="*" style="text;html=1;align=center;verticalAlign=middle;whiteSpace=wrap;rounded=0;" vertex="1" parent="1">
          <mxGeometry x="630" y="353" width="50" height="30" as="geometry" />
        </mxCell>
        <mxCell id="jFM6U1cqWZua-iRVbguj-47" value="" style="endArrow=none;html=1;rounded=0;entryX=0.001;entryY=0.203;entryDx=0;entryDy=0;entryPerimeter=0;exitX=0.5;exitY=0;exitDx=0;exitDy=0;" edge="1" parent="1" source="jFM6U1cqWZua-iRVbguj-51" target="KGjBcAXWpHdNkzQw82LQ-29">
          <mxGeometry width="50" height="50" relative="1" as="geometry">
            <mxPoint x="520" y="644" as="sourcePoint" />
            <mxPoint x="570" y="594" as="targetPoint" />
          </mxGeometry>
        </mxCell>
        <mxCell id="jFM6U1cqWZua-iRVbguj-49" value="" style="endArrow=none;html=1;rounded=0;entryX=0;entryY=0;entryDx=0;entryDy=0;exitX=0.5;exitY=0;exitDx=0;exitDy=0;" edge="1" parent="1" source="jFM6U1cqWZua-iRVbguj-53" target="KGjBcAXWpHdNkzQw82LQ-17">
          <mxGeometry width="50" height="50" relative="1" as="geometry">
            <mxPoint x="480" y="650" as="sourcePoint" />
            <mxPoint x="600" y="601" as="targetPoint" />
          </mxGeometry>
        </mxCell>
        <mxCell id="jFM6U1cqWZua-iRVbguj-51" value="" style="rhombus;whiteSpace=wrap;html=1;fillColor=#000000;rotation=50;" vertex="1" parent="1">
          <mxGeometry x="425" y="754.5" width="10" height="23" as="geometry" />
        </mxCell>
        <mxCell id="jFM6U1cqWZua-iRVbguj-53" value="" style="rhombus;whiteSpace=wrap;html=1;fillColor=#000000;rotation=60;" vertex="1" parent="1">
          <mxGeometry x="425" y="777.5" width="10" height="23" as="geometry" />
        </mxCell>
        <mxCell id="jFM6U1cqWZua-iRVbguj-63" value="2" style="text;html=1;align=center;verticalAlign=middle;whiteSpace=wrap;rounded=0;" vertex="1" parent="1">
          <mxGeometry x="550" y="610" width="60" height="30" as="geometry" />
        </mxCell>
        <mxCell id="jFM6U1cqWZua-iRVbguj-64" value="" style="endArrow=classic;startArrow=classic;html=1;rounded=0;exitX=1;exitY=0.5;exitDx=0;exitDy=0;entryX=0;entryY=0;entryDx=0;entryDy=0;" edge="1" parent="1" target="KGjBcAXWpHdNkzQw82LQ-17">
          <mxGeometry width="50" height="50" relative="1" as="geometry">
            <mxPoint x="230" y="610" as="sourcePoint" />
            <mxPoint x="592" y="611" as="targetPoint" />
          </mxGeometry>
        </mxCell>
        <mxCell id="jFM6U1cqWZua-iRVbguj-65" value="besteht aus" style="text;html=1;align=center;verticalAlign=middle;whiteSpace=wrap;rounded=0;" vertex="1" parent="1">
          <mxGeometry x="380" y="614" width="80" height="30" as="geometry" />
        </mxCell>
        <mxCell id="jFM6U1cqWZua-iRVbguj-66" value="1" style="text;html=1;align=center;verticalAlign=middle;whiteSpace=wrap;rounded=0;" vertex="1" parent="1">
          <mxGeometry x="210" y="614" width="60" height="30" as="geometry" />
        </mxCell>
        <mxCell id="jFM6U1cqWZua-iRVbguj-67" value="2" style="text;html=1;align=center;verticalAlign=middle;whiteSpace=wrap;rounded=0;" vertex="1" parent="1">
          <mxGeometry x="550" y="651" width="60" height="30" as="geometry" />
        </mxCell>
      </root>
    </mxGraphModel>
  </diagram>
</mxfile>
